<?xml version="1.0" encoding="utf-8"?><!DOCTYPE svg PUBLIC "-//W3C//DTD SVG 1.1//EN" "http://www.w3.org/Graphics/SVG/1.1/DTD/svg11.dtd"><svg version="1.1" xmlns="http://www.w3.org/2000/svg" width="664" height="292" viewBox="0 0 664 292"><g fill="#843900"><g transform="scale(0.457,0.457) translate(63,63)"><path d="M 193.2 43.55 L 192.65 45.25 L 191.8 44.7 L 191.5 44.15 L 190.65 43 L 190.65 42.7 L 190.05 42.4 L 189.5 42.4 L 188.95 42.7 L 176.65 52.1 L 166.7 63.5 L 164.05 62.1 L 138.15 72.65 L 137.85 74.35 L 137 75.75 L 134.7 77.45 L 131 79.45 L 130.15 80.3 L 130.15 79.2 L 129.6 77.75 L 127.6 75.75 L 125.9 73.2 L 125.3 71.75 L 125.05 70.05 L 128.15 62.95 L 135 44.4 L 137.3 33 L 137.55 25.3 L 136.7 17.6 L 133.6 8.85 L 133.3 7.4 L 133.3 2 L 132.7 0.85 L 131.6 0 L 130.15 5.15 L 127.6 6.85 L 125.3 8.85 L 123.3 11.4 L 114.75 25.9 L 112.7 27.3 L 111 29 L 108.15 32.75 L 98.45 47.85 L 93.35 52.1 L 91.35 53.25 L 87.65 58.65 L 83.05 63.5 L 73.1 72.65 L 73.4 74.35 L 73.4 77.75 L 72.25 82.6 L 70.8 85.7 L 67.7 95.95 L 67.7 97.95 L 67.95 99.95 L 64.25 104.8 L 62.5 108.5 L 61.95 110.2 L 61.95 112.2 L 62.5 114.2 L 61.65 118.45 L 61.65 119.9 L 62.2 121.3 L 64.25 123.6 L 67.4 125.3 L 77.95 129.85 L 80.8 132.4 L 89.9 131.3 L 95.6 129 L 100.75 125.6 L 103 123.3 L 103.3 123.3 L 103.9 123.6 L 105 124.45 L 105.6 124.75 L 106.45 125 L 107.3 125 L 125.05 112.75 L 128.15 112.2 L 131 111.05 L 136.7 107.9 L 155.25 93.95 L 158.1 92.8 L 164.05 91.4 L 167.25 91.4 L 170.7 91.95 L 171.25 95.95 L 171.55 107.35 L 167.25 136.7 L 166.7 144.1 L 166.7 151.75 L 167.25 152.6 L 167.85 153.15 L 167.85 154.6 L 167.55 156.3 L 167 157.75 L 164.95 160.6 L 164.35 162 L 164.05 163.45 L 165.5 167.7 L 165.8 169.7 L 164.65 183.4 L 164.65 185.1 L 165.2 189.1 L 166.7 192.8 L 168.1 194.8 L 166.7 197.35 L 164.95 199.35 L 162.95 201.05 L 158.95 203.6 L 157.25 205.05 L 155.8 206.75 L 155.25 207.9 L 154.95 209.05 L 152.95 207.05 L 150.95 207.05 L 147.25 208.75 L 145.85 209.05 L 144.7 209.05 L 138.4 215.6 L 136.45 218.4 L 135.55 220.65 L 133.85 219.5 L 133 218.1 L 132.45 216.65 L 131.6 215.6 L 128.75 216.65 L 115.05 220.65 L 113.3 221.5 L 111.85 222.65 L 109.6 224.95 L 108.7 226.65 L 108.15 228.35 L 107.3 227.5 L 106.15 226.95 L 105.3 226.65 L 104.45 226.65 L 103.6 226.95 L 101.3 228.65 L 98.75 231.5 L 97.9 231.8 L 97.3 231.8 L 96.45 230.9 L 67.95 251.75 L 50.25 269.4 L 42.25 279.1 L 34.85 289 L 21.45 310.4 L 15.75 321.2 L 10.55 332.35 L 11.75 333.75 L 12.05 335.2 L 12.05 336.6 L 11.75 338.05 L 10.9 339.45 L 8 342.9 L 5.45 355.65 L 3.45 368.75 L 0 396.1 L 8 416.35 L 13.45 425.4 L 16.9 429.7 L 20.9 433.7 L 22 433.4 L 24.3 433.4 L 24.85 433.7 L 25.75 434.25 L 26.3 434.8 L 26 436.25 L 26 437.4 L 26.3 438.25 L 26.85 439.4 L 28.3 441.4 L 36.25 448.5 L 38 450.5 L 44.55 453.9 L 64 466.15 L 68.25 467.6 L 105 484.65 L 108.45 485.8 L 110.15 485.8 L 112.15 485.5 L 118.45 489.2 L 152.4 502.9 L 167 511.15 L 168.4 511.7 L 169.85 512 L 171.25 512 L 172.7 511.7 L 174.1 511.15 L 175.55 510.3 L 177.25 508.85 L 178.4 509.45 L 179.5 509.45 L 180.65 509.15 L 181.25 508.85 L 182.1 508.3 L 182.65 507.75 L 185.2 503.15 L 186.1 502.9 L 186.65 502.6 L 187.8 502.3 L 188.95 502.6 L 191.5 499.45 L 193.2 496.05 L 193.75 494.35 L 193.75 492.6 L 193.5 490.9 L 192.65 489.5 L 194.9 480.4 L 195.5 470.75 L 194.35 461.6 L 191.5 453.05 L 191.8 443.1 L 186.95 407.5 L 187.5 401.25 L 186.65 398.7 L 185.5 386.45 L 184.95 384.15 L 183.5 381.6 L 184.35 380.45 L 184.95 379.3 L 185.2 378.15 L 185.2 377 L 184.35 372.45 L 183.5 370.45 L 183.25 368.2 L 183.25 367.05 L 183.5 365.9 L 184.1 364.75 L 184.95 363.6 L 188.65 362.2 L 196.35 360.5 L 199.75 360.2 L 214.85 360.75 L 222.9 359.35 L 231.45 360.2 L 248.55 365.05 L 257.4 367.05 L 260.25 367.35 L 261.1 369.3 L 261.1 372.75 L 259.65 375.9 L 258.55 377.3 L 256.55 380.45 L 253.4 383 L 239.7 397.85 L 236.6 400.4 L 233.15 402.4 L 230.9 405.25 L 221.75 412.65 L 217.45 416.85 L 216.3 418.3 L 214.6 421.7 L 213.45 425.7 L 214.85 426.25 L 216.55 426.25 L 218 426 L 222.35 424.25 L 228.3 420.85 L 232.6 419.15 L 234 418.85 L 235.45 418.85 L 236.85 419.45 L 270.85 403.8 L 273.4 403.8 L 275.95 403.25 L 276.8 402.95 L 277.95 402.1 L 278.8 401.25 L 279.95 399.8 L 282.5 398.7 L 293.05 395.55 L 298.2 393 L 300.75 390.7 L 303.6 389.55 L 306.2 388.15 L 316.15 379.85 L 321.55 376.45 L 322.75 373.3 L 323.9 368.2 L 323.9 366.75 L 323.6 365.05 L 322.75 363.6 L 315 353.1 L 308.75 346.6 L 301.9 341.15 L 298.2 338.9 L 297.65 337.45 L 296.75 336.3 L 295.9 335.45 L 295.05 334.9 L 292.8 334.35 L 287.65 334.35 L 285.1 333.75 L 283.95 333.2 L 281.95 331.2 L 281.1 329.75 L 278.25 330.05 L 267.65 328.65 L 262.8 329.5 L 260.25 331.2 L 258.55 330.05 L 254.8 329.2 L 251.4 329.2 L 250 329.75 L 246.85 330.6 L 243.4 332.05 L 240.3 332.9 L 238.6 333.2 L 236.85 333.2 L 234.85 332.9 L 233.15 332.35 L 231.45 333.75 L 230.05 334.6 L 228.6 335.2 L 223.75 335.75 L 216 335.75 L 214.3 336.3 L 212.85 336.6 L 211.15 337.45 L 208.3 340.05 L 208 338.9 L 207.45 337.75 L 206.9 337.2 L 206.05 336.6 L 205.45 336.3 L 204.3 336.3 L 201.45 337.45 L 199.2 338.9 L 197.2 340.9 L 196.6 342.9 L 196.6 338.9 L 196.05 337.75 L 195.5 336.9 L 194.9 336.3 L 193.75 336.05 L 191.8 336.05 L 189.8 336.3 L 188.95 336.3 L 188.05 336.05 L 187.2 335.45 L 186.65 334.9 L 186.35 333.75 L 186.35 332.35 L 207.45 303.25 L 225.2 282.5 L 231.75 273.95 L 233.45 272.55 L 236 269.1 L 239.15 263.4 L 242 255.15 L 244.85 242.6 L 244 242.3 L 243.15 241.45 L 242.3 240.05 L 240.85 232.65 L 239.7 230.9 L 239.15 230.35 L 238.3 229.8 L 238.3 227.8 L 237.7 224.65 L 236.85 223.25 L 234.85 220.65 L 232.3 218.65 L 226.3 215.3 L 221.45 211.6 L 220.05 211.3 L 219.2 211.3 L 218.3 211.6 L 217.7 211.9 L 216 214.15 L 215.7 212.75 L 215.15 211.6 L 213.7 209.6 L 212 208.2 L 209.75 207.05 L 204.9 205.9 L 196.9 205.05 L 194.35 204.45 L 189.8 202.75 L 188.05 201.35 L 186.35 199.35 L 185.8 197.9 L 184.95 193.35 L 186.1 189.65 L 191.8 156.6 L 195.75 142.7 L 199.2 136.15 L 200.05 135.25 L 200.05 128.15 L 200.6 127 L 201.75 125.85 L 202.3 123 L 205.45 114.2 L 213.15 98.5 L 221.75 84.85 L 226.6 75.5 L 228.05 67.8 L 227.75 64.95 L 226.9 62.65 L 224.3 58.65 L 221.45 55.8 L 216.3 52.7 L 208.9 49.25 L 201.75 45.25 L 200.35 45 L 198.9 44.4 L 195.2 42.4 L 194.65 42.4 L 194.05 42.7 L 193.2 43.55 M 187.8 219.8 L 190.05 220.4 L 191.2 220.95 L 193.2 222.35 L 195.2 224.35 L 198.05 228.35 L 200.05 234.05 L 200.6 239.75 L 200.05 245.15 L 193.75 266 L 192.65 271.4 L 192.05 271.95 L 191.5 271.95 L 191.5 271.1 L 191.2 269.4 L 190.9 268.85 L 190.05 268.85 L 188.95 270.25 L 188.05 271.95 L 186.65 275.95 L 186.1 278.25 L 184.1 282.25 L 182.35 284.15 L 179.8 281.65 L 178.95 274.55 L 178.95 267.1 L 182.35 223.25 L 183.25 222.1 L 184.35 220.95 L 185.5 220.4 L 187.8 219.8 M 158.65 219.8 L 159.5 220.1 L 160.1 220.65 L 160.65 221.5 L 161.2 222.95 L 162.1 230.9 L 161.8 243.2 L 160.1 261.4 L 159.25 298.4 L 157.8 305.8 L 156.1 310.65 L 154.95 312.95 L 152.1 314.35 L 143.55 320.05 L 116.5 342.6 L 110.7 346.6 L 108.45 350.5 L 105.3 359.05 L 103.6 368.2 L 103 381.6 L 103.9 383.3 L 105 384.7 L 109.3 387.3 L 114.15 388.15 L 117.6 388.15 L 126.45 387 L 130.75 385.55 L 149.8 373.9 L 154.1 372.15 L 156.4 371.6 L 158.95 371.3 L 159.8 373.3 L 160.35 375.9 L 160.35 377 L 159.8 379.3 L 158.95 380.45 L 160.35 387.3 L 161.5 400.95 L 161.5 407.8 L 160.1 434.8 L 160.95 437.4 L 161.2 442.5 L 160.95 445.35 L 160.1 447.95 L 159.5 450.8 L 157.5 455.65 L 155.5 455.65 L 153.25 455.9 L 146.4 457.6 L 143.25 457.6 L 141.55 456.5 L 140.7 455.65 L 139.55 456.2 L 136.45 456.2 L 130.15 454.75 L 127.9 454.5 L 125.9 454.75 L 124.75 455.05 L 123.9 455.65 L 123.3 454.75 L 121.05 453.35 L 119.35 452.8 L 115.35 452.2 L 113.55 451.65 L 111.85 450.8 L 111.3 450.2 L 110.7 449.35 L 96.2 444.8 L 81.95 437.95 L 73.1 432.25 L 71.65 432.85 L 70.55 432.85 L 69.4 432.25 L 68.55 431.4 L 66.55 430 L 65.4 429.7 L 64 429.7 L 61.05 425.7 L 44.8 408.35 L 42.25 404.4 L 40.55 399.8 L 37.15 392.7 L 35.15 385.3 L 33.7 370.2 L 34.3 347.15 L 34 338.9 L 40.55 321.5 L 46.55 310.95 L 49.95 305.8 L 56.25 299.25 L 58.8 297.25 L 67.4 285.6 L 80.8 269.1 L 90.75 258.85 L 96.45 254.3 L 108.7 246.05 L 120.75 236.9 L 127 232.9 L 140.15 226.35 L 149.25 224.1 L 155.8 220.65 L 158.65 219.8"></path></g><g transform="scale(0.457,0.457) translate(513,63)"><path d="M 264.75 9.7 L 260.4 6.35 L 257.05 4.65 L 237.9 0 L 237.2 1 L 236.2 1.65 L 233.85 1.65 L 231.5 1.3 L 230.5 1.3 L 229.5 2 L 228.5 1.3 L 227.5 1 L 223.8 1 L 222.8 0 L 192.3 2.35 L 187.95 3 L 189.65 3 L 197.35 8 L 199 8.7 L 201 8.7 L 203.05 10.7 L 207.7 13.05 L 209.75 15.05 L 211.4 15.05 L 214.1 16.4 L 215.45 17.4 L 216.45 18.4 L 217.75 19.4 L 219.1 19.75 L 220.8 19.75 L 227.5 20.75 L 233.2 22.75 L 235.2 22.75 L 245.6 24.8 L 247.25 24.8 L 254.35 23.75 L 260.05 23.75 L 265.4 22.45 L 268.45 19.4 L 269.1 18.05 L 269.1 16.05 L 268.45 14.4 L 267.45 12.7 L 264.75 9.7"></path><path d="M 258.7 76.1 L 256.05 77.45 L 249.95 79.1 L 246.9 81.15 L 243.55 82.15 L 230.15 83.15 L 226.8 84.5 L 223.8 86.5 L 208.4 91.2 L 193.65 96.85 L 193 97.9 L 192.3 98.55 L 190.65 99.2 L 188.95 99.55 L 187.3 99.2 L 184.25 99.2 L 183.25 100.2 L 182.25 101.55 L 181.25 100.9 L 171.55 103.6 L 142.75 114.95 L 135.7 116.65 L 114.6 124.35 L 113.6 125.35 L 112.25 126.35 L 110.55 126.35 L 108.9 126 L 94.8 132.7 L 85.1 134.4 L 83.45 135.05 L 82.1 136.05 L 80.75 137.4 L 79.4 136.75 L 78.4 136.75 L 77.05 137.4 L 76.05 138.1 L 73.35 139.4 L 72.05 139.75 L 70.35 139.4 L 68.7 140.75 L 66.65 141.75 L 64.65 142.45 L 62.3 142.75 L 57.95 142.75 L 53.6 142.1 L 52.25 142.45 L 48.9 147.2 L 48.25 147.85 L 46.9 148.85 L 46.55 149.9 L 46.9 150.9 L 46.9 151.9 L 47.6 152.9 L 50.6 156.25 L 55.95 157.9 L 62 157.6 L 68.35 156.9 L 74.4 157.25 L 76.7 154.55 L 78.05 153.9 L 92.15 150.55 L 94.15 149.55 L 99.15 148.2 L 109.2 146.85 L 111.9 145.8 L 112.9 146.2 L 116.25 144.8 L 117.25 144.1 L 119.95 144.1 L 121.3 144.8 L 122.6 144.8 L 123.65 144.45 L 125.65 143.45 L 127.3 142.1 L 128.65 140.45 L 131.65 137.4 L 133.7 136.4 L 136.35 136.4 L 147.1 132.7 L 157.15 128.05 L 158.15 127.7 L 159.5 127.05 L 162.85 124.7 L 165.5 124 L 167.2 124.35 L 168.2 122.35 L 168.85 121.65 L 169.85 121 L 171.55 120.35 L 173.55 120 L 175.9 120 L 177.9 119.3 L 179.9 118.3 L 180.6 117.65 L 181.25 116.65 L 193.65 115.3 L 197.35 115.65 L 198.7 114.95 L 199.7 114.3 L 202.7 113.65 L 208.75 112.95 L 210.75 113.65 L 212.75 113.65 L 219.8 110.6 L 221.8 110.3 L 223.8 110.3 L 225.5 111.3 L 228.15 113.95 L 229.15 115.3 L 231.2 118.65 L 233.5 126 L 234.85 137.4 L 234.55 152.9 L 233.2 167.65 L 226.5 173.35 L 217.75 183.4 L 210.75 189.1 L 206.7 191.1 L 205.7 190.4 L 205.05 189.1 L 204.35 186.75 L 205.4 176.7 L 209.4 153.55 L 209.75 144.1 L 208.05 143.45 L 195.35 133.75 L 192.3 132.05 L 188.95 131.4 L 186.95 131.4 L 185.3 131.7 L 183.25 130.7 L 181.6 130.4 L 179.9 130.7 L 178.25 131.4 L 174.55 133.4 L 171.2 134.75 L 171.85 135.4 L 175.2 136.05 L 178.25 137.4 L 180.9 139.4 L 183.25 142.1 L 183.95 145.45 L 183.95 156.9 L 182.95 164.95 L 181.25 172.3 L 182.25 175.35 L 182.25 181.35 L 181.25 191.1 L 182.6 200.45 L 182.6 202.8 L 182.25 204.8 L 179.25 210.2 L 176.25 213.2 L 169.2 218.55 L 163.5 225 L 162.5 223 L 161.8 223.65 L 161.15 224 L 160.8 224 L 157.45 226.35 L 155.45 227.35 L 151.1 228.7 L 149.1 228.35 L 148.1 228 L 147.4 227.65 L 146.4 227 L 145.75 226 L 147.1 219.95 L 147.75 219.25 L 148.4 218.2 L 148.75 216.55 L 148.4 215.9 L 148.1 215.55 L 147.4 215.55 L 144.75 217.55 L 145.05 218.9 L 144.75 219.95 L 144.05 220.65 L 142.75 220.95 L 140.4 221.3 L 139.05 221.65 L 138.05 222.3 L 135 219.25 L 130 212.85 L 128 208.85 L 125.95 215.55 L 125.95 217.2 L 124.65 223 L 124.65 224.3 L 124.95 225.65 L 125.95 227 L 125.3 230 L 127 243.4 L 126.3 246.45 L 125.65 247.75 L 124.65 249.1 L 122.95 250.1 L 121.3 251.45 L 118.95 251.45 L 117.95 251.1 L 117.25 250.45 L 114.6 246.75 L 115.9 235.05 L 116.95 211.5 L 116.6 199.45 L 114.6 192.45 L 113.6 191.75 L 112.9 191.1 L 113.6 189.75 L 113.9 188.4 L 113.25 185.4 L 112.25 183.05 L 111.9 181.7 L 111.9 180.7 L 110.25 185.05 L 110.25 194.75 L 109.55 197.1 L 108.2 199.45 L 104.2 216.9 L 103.85 220.65 L 104.2 224.3 L 104.55 226 L 105.2 227.65 L 101.5 238.75 L 98.85 256.8 L 97.15 259.85 L 95.5 266.55 L 93.15 284.3 L 87.1 290.3 L 80.75 295.75 L 74.05 297.75 L 70.7 299.1 L 69.35 300.1 L 68.7 301.1 L 67.7 301.45 L 67 301.8 L 66.65 301.45 L 66.65 301.1 L 67.35 299.45 L 67.7 293.75 L 67.35 287.3 L 67.7 285.3 L 69.35 282.3 L 70.35 279.25 L 72.7 264.55 L 74.4 261.5 L 73.35 257.5 L 72.7 239.75 L 70.35 231.35 L 67.7 227.65 L 66 228 L 64.65 227.35 L 63.65 226.35 L 63.3 225 L 61.3 220.65 L 59.95 219.25 L 57.3 223 L 53.6 242.1 L 53.6 244.4 L 52.6 251.8 L 47.25 264.85 L 44.55 273.9 L 44.25 276.25 L 44.25 278.6 L 38.85 288 L 29.8 307.8 L 26.15 318.2 L 27.15 319.55 L 27.45 321.2 L 27.45 324.55 L 27.15 326.25 L 27.45 327.9 L 28.15 329.25 L 29.15 330.25 L 29.15 333.25 L 32.15 338.65 L 41.55 347.7 L 43.2 350.05 L 43.55 350.35 L 46.25 350.35 L 47.6 351.05 L 47.9 352.05 L 48.9 352.35 L 49.9 352.35 L 50.6 352.05 L 51.6 351.7 L 54.6 349 L 57.3 349 L 66.65 347.35 L 68.7 346.35 L 70.35 346 L 72.35 346.35 L 74.4 347.35 L 69.7 367.5 L 63.3 390.95 L 59.95 400 L 47.25 425.5 L 45.55 427.5 L 43.2 429.15 L 41.9 428.85 L 40.2 428.85 L 34.85 430.5 L 33.15 430.5 L 31.85 430.15 L 26.15 429.5 L 23.45 429.5 L 18.1 428.15 L 15.75 427.15 L 13.75 425.8 L 11.05 421.8 L 2 413.1 L 1 411.4 L 0 413.1 L 0 414.4 L 0.35 416.1 L 1.35 417.45 L 3.7 421.8 L 3.7 425.8 L 4 428.15 L 4.7 430.15 L 8.05 435.55 L 9.4 439.6 L 12.05 444.65 L 20.1 452 L 23.45 456.35 L 29.5 457.35 L 31.5 458.05 L 34.85 460.05 L 36.5 461.4 L 37.55 463.05 L 40.9 464.05 L 43.9 464.4 L 46.9 464.05 L 49.6 463.4 L 57.3 460.7 L 59.95 460.4 L 65 457.05 L 72.05 449 L 74.7 444.65 L 92.15 401 L 92.45 394.65 L 93.8 388.6 L 94.8 385.95 L 95.5 382.95 L 95.8 376.55 L 98.15 368.85 L 101.5 349.35 L 103.2 343 L 103.55 336.6 L 104.2 334.3 L 105.55 327.25 L 107.2 305.8 L 108.55 296.1 L 108.9 294.75 L 113.6 289 L 116.6 282.3 L 118.6 280.6 L 123.65 274.25 L 128 265.55 L 130.65 262.2 L 136.05 259.15 L 138.05 258.85 L 142.05 258.85 L 143.4 259.85 L 144.75 260.5 L 146.1 260.85 L 147.4 260.85 L 149.75 260.5 L 152.1 259.15 L 157.15 257.15 L 159.8 256.5 L 161.15 256.5 L 162.5 256.8 L 163.5 255.15 L 164.85 254.15 L 166.2 253.45 L 169.2 252.8 L 170.85 252.15 L 172.2 251.1 L 172.9 249.45 L 173.9 248.8 L 174.55 248.45 L 175.55 248.1 L 176.55 248.1 L 177.55 248.45 L 178.25 248.8 L 178.9 249.45 L 179.6 250.45 L 182.95 254.15 L 185.95 258.5 L 186.6 260.85 L 186.6 261.85 L 185.95 264.2 L 183.95 266.2 L 182.25 267.2 L 180.25 272.25 L 177.25 277.25 L 169.55 285.65 L 152.1 302.1 L 151.45 304.8 L 148.1 309.8 L 144.05 314.2 L 137.35 319.2 L 136.05 322.55 L 134 325.25 L 131.35 327.25 L 128.3 328.9 L 122.95 332.95 L 121.95 333.95 L 120.6 336.95 L 120.3 338.95 L 120.3 339.95 L 120.6 341 L 121.95 343 L 123.95 347.35 L 127 363.45 L 129 366.5 L 130 367.5 L 131.35 367.85 L 132.35 367.85 L 133.7 367.5 L 138.7 364.1 L 141.05 362.1 L 142.4 361.75 L 143.75 361.1 L 145.05 361.1 L 146.75 361.4 L 168.85 338.95 L 172.2 334.95 L 174.9 330.25 L 182.6 325.25 L 184.6 324.25 L 186.6 323.9 L 189.65 324.9 L 190.95 325.55 L 188.65 332.95 L 187.95 333.95 L 186.95 334.95 L 186.95 337.95 L 186.3 340.65 L 183.95 345.35 L 179.6 352.05 L 178.55 354.7 L 164.5 383.95 L 164.15 385.95 L 163.5 387.95 L 162.5 389.65 L 158.8 394.3 L 157.8 396 L 155.45 403.7 L 148.1 419.45 L 134 443.3 L 133.35 445.3 L 133.35 448.65 L 133.7 450.35 L 135 453.7 L 138.7 460.7 L 140.7 466.75 L 141.05 468.75 L 143.4 474.1 L 145.05 476.45 L 147.4 478.5 L 152.45 481.85 L 157.8 483.85 L 160.15 482.15 L 169.85 478.5 L 172.2 477.15 L 174.2 475.15 L 175.9 472.45 L 176.9 471.45 L 177.9 470.1 L 180.9 465.1 L 181.95 464.05 L 183.25 463.05 L 183.25 461.4 L 183.6 460.05 L 184.25 458.7 L 187.6 455.35 L 188.95 452.7 L 196.35 440.6 L 197 434.85 L 200 427.5 L 205.05 420.8 L 205.05 419.8 L 205.4 418.75 L 206.4 417.45 L 207.05 416.1 L 207.05 415.1 L 206.7 414.1 L 213.4 405.7 L 219.1 396.35 L 219.8 394 L 224.8 385.6 L 225.5 383.6 L 226.5 378.25 L 228.5 375.55 L 233.5 365.45 L 238.9 352.05 L 242.55 348 L 248.25 334.95 L 249.95 332.25 L 250.25 330.25 L 251 328.6 L 252 326.9 L 258.7 319.2 L 258.7 317.2 L 259.4 315.85 L 261.4 313.15 L 262.75 312.15 L 264.1 310.85 L 264.75 309.15 L 265.1 306.8 L 268.1 304.15 L 271.8 299.1 L 273.45 297.75 L 275.15 296.75 L 277.5 296.4 L 279.5 300.1 L 280.15 304.15 L 280.15 311.5 L 279.15 312.85 L 278.5 314.5 L 278.5 317.2 L 276.45 320.2 L 273.8 325.9 L 270.8 334.95 L 268.1 340.65 L 265.75 342.3 L 265.1 343.65 L 265.1 345.35 L 262.75 347 L 259.05 350.7 L 257.7 352.7 L 255.7 357.05 L 254.7 361.75 L 253 381.25 L 253 382.6 L 253.35 383.95 L 254 385.25 L 255.35 385.95 L 257.05 385.95 L 262.75 385.6 L 264.1 385.95 L 273.45 374.9 L 274.8 372.9 L 275.45 370.85 L 284.85 360.4 L 287.55 358.4 L 290.2 357.05 L 293.55 356.05 L 297.25 355.7 L 298.6 356.75 L 300.25 357.4 L 306.3 360.4 L 307.95 361.75 L 309.3 363.45 L 310.65 363.75 L 311.65 364.45 L 312 365.45 L 312 366.85 L 311.65 369.2 L 311.65 370.2 L 312.3 370.85 L 311 372.9 L 310.3 377.25 L 310.3 385.6 L 309.3 387.95 L 305.3 394.3 L 294.25 416.1 L 292.9 414.75 L 291.55 414.1 L 289.55 414.75 L 287.85 414.75 L 286.2 414.1 L 284.5 413.1 L 281.15 411.75 L 279.5 411.75 L 277.5 412.4 L 275.45 411.4 L 269.45 409.75 L 260.4 408.4 L 259.7 407.7 L 259.05 407.4 L 257.35 407.05 L 256.05 407.05 L 252.7 408.4 L 251.35 408.7 L 249.6 408.4 L 248.25 407.7 L 246.25 411.4 L 244.6 407.7 L 242.25 406.4 L 240.9 406.4 L 239.55 406.7 L 242.55 410.4 L 243.9 411.75 L 247.25 413.75 L 250.65 415.1 L 252.7 415.4 L 254.7 415.4 L 256.7 415.1 L 259.05 418.1 L 261.4 420.45 L 266.4 424.45 L 279.15 431.15 L 279.15 433.2 L 278.5 435.2 L 277.15 437.55 L 275.45 439.6 L 261.05 447.3 L 255.7 449 L 253 448.65 L 249.6 448.65 L 240.2 450 L 237.2 450 L 234.2 449.35 L 231.2 448 L 228.5 448.3 L 225.8 448.3 L 218.1 446.3 L 213.1 445.65 L 210.4 446.3 L 205.05 444.65 L 203.05 444.3 L 202.05 444.65 Q 201.55 444.95 201 445.3 L 204.05 448.3 L 210.05 455.7 L 212.4 460.4 L 218.45 462.75 L 229.15 468.75 L 234.85 470.75 L 236.85 472.1 L 240.9 474.1 L 243.25 474.8 L 251.7 475.8 L 265.4 475.15 L 269.75 475.45 L 275.15 473.45 L 284.85 468.75 L 307.65 454.7 L 315 457.35 L 318.7 459.4 L 327.75 466.1 L 333.1 471.8 L 352.5 495.25 L 353.85 499.6 L 354.85 501.95 L 356.55 503.6 L 359.2 505.6 L 362.25 507.3 L 366.6 510.65 L 367.6 512 L 368.6 511 L 369.95 510.65 L 372.3 509.65 L 374.3 509.3 L 375.3 508.95 L 376 508.3 L 379 503.95 L 380 501.95 L 381.65 497.55 L 381.65 492.9 L 380.65 490.2 L 379 488.2 L 377.65 485.85 L 373.95 477.8 L 372.65 475.45 L 370.3 473.1 L 367.6 471.45 L 366.95 470.75 L 365.6 466.1 L 364.9 465.1 L 364.25 464.4 L 362.9 464.05 L 354.85 454 L 339.45 438.55 L 336.8 438.55 L 335.75 438.2 L 333.1 436.2 L 331.75 434.2 L 329.4 429.85 L 326.4 426.5 L 327.05 423.45 L 329.75 418.1 L 331.4 415.75 L 335.75 408.4 L 336.8 405.7 L 339.45 403.05 L 341.8 399.7 L 343.5 396.35 L 345.8 384.95 L 346.15 377.55 L 344.5 367.5 L 343.5 365.75 L 342.15 364.45 L 338.45 362.1 L 329.4 352.05 L 327.05 350.7 L 321.7 349.7 L 304.6 344 L 301.95 343.65 L 300.6 342.65 L 299.9 341.65 L 299.9 340.65 L 300.6 339.65 L 301.6 337.65 L 301.95 336.3 L 301.95 334.95 L 305.3 330.95 L 307.95 326.55 L 317.7 301.8 L 320.7 297.45 L 321.35 294.4 L 321.35 289.3 L 320.05 286.3 L 318.7 285.3 L 315.35 282.3 L 313 280.95 L 308.3 279.6 L 305.95 279.25 L 303.6 279.25 L 301.95 279.6 L 299.9 277.6 L 288.55 272.55 L 286.2 270.9 L 285.2 269.9 L 284.2 268.55 L 283.5 267.2 L 283.15 265.55 L 284.2 264.55 L 285.2 263.85 L 292.55 261.5 L 306.95 251.8 L 314 246.45 L 316.7 243.1 L 318.7 239.05 L 319 237.05 L 318.7 235.4 L 318 233.7 L 311.3 227.65 L 308.65 226.35 L 301.25 226.35 L 299.9 226 L 298.25 227.65 L 296.55 228.7 L 294.9 229 L 293.2 229 L 285.85 227.65 L 282.85 229 L 281.5 230 L 275.45 236.4 L 266.4 247.75 L 263.4 250.1 L 260.4 251.45 L 258.7 251.8 L 257.05 251.8 L 253 250.45 L 251.7 248.8 L 251 247.1 L 250.65 245.1 L 250.65 243.1 L 251 241.05 L 253 235.4 L 252.7 230 L 254.7 225.35 L 257.7 221.3 L 261.4 217.55 L 264.1 217.55 L 266.4 217.2 L 270.1 215.55 L 278.15 208.15 L 293.2 197.8 L 294.9 197.8 L 296.9 196.45 L 297.6 195.1 L 299.6 193.1 L 300.95 192.45 L 302.95 192.1 L 303.6 190.1 L 304.95 188.4 L 307.95 185.4 L 310.65 182.05 L 311.65 180.05 L 312.3 178 L 311 177.7 L 310.3 177.7 L 310.3 177 L 312 176.7 L 313.65 175.65 L 316.35 172.3 L 320.7 164.6 L 321.7 162.6 L 322.7 158.25 L 322.7 155.9 L 322.05 151.2 L 320.7 146.85 L 314.65 142.75 L 313.35 141.45 L 311 138.4 L 310.3 136.4 L 308.95 135.4 L 307.65 135.4 L 305.3 136.05 L 302.6 137.4 L 301.25 137.75 L 299.9 137.4 L 297.6 138.1 L 295.25 138.1 L 293.2 137.75 L 289.2 136.4 L 287.2 136.05 L 285.2 136.4 Q 283.05 137.6 280.85 138.75 L 272.8 144.45 L 270.45 145.45 L 267.75 145.8 L 263.75 145.8 L 262.75 145.1 L 261.4 143.1 L 261.05 142.1 L 261.05 140.75 L 261.4 138.4 L 262.05 136.75 L 262.4 135.05 L 262.05 128.05 L 261.4 124.35 L 263.05 120.35 L 263.4 118.65 L 263.05 117 L 262.4 115.65 L 259.05 112.3 L 253.7 107.95 L 251.7 105.25 L 251 101.55 L 251.7 100.2 L 252 99.2 L 253.7 97.55 L 256.05 96.55 L 263.05 95.2 L 265.4 94.55 L 266.4 93.85 L 267.1 93.2 L 283.85 90.85 L 294.25 91.2 L 294.9 90.85 L 295.25 90.15 L 297.9 89.5 L 301.25 89.5 L 301.95 88.85 L 303.25 86.5 L 303.6 84.8 L 302.95 82.45 L 300.95 78.1 L 299.9 77.1 L 298.9 76.45 L 296.9 75.75 L 294.9 74.75 L 287.85 70 L 285.5 69.65 L 283.15 69.65 L 281.5 68.65 L 280.15 68.35 L 278.5 68.65 L 271.8 71.35 L 269.75 71.7 L 269.1 72 L 268.1 72.7 L 265.4 73.4 L 262.75 73.75 L 260.4 74.45 L 259.7 75.45 L 258.7 76.1 M 287.55 144.45 L 288.55 145.45 L 289.2 146.85 L 289.55 148.85 L 288.2 152.9 L 284.5 159.95 L 279.5 166.3 L 270.8 175 L 269.45 175.35 L 265.1 177.7 L 263.75 178 L 262.4 178 L 261.05 177 L 259.4 175 L 260.4 173.65 L 260.75 172 L 259.7 167.3 L 259.7 165.3 L 260.05 163.6 L 261.4 161.95 L 261.4 160.25 L 262.05 158.6 L 262.4 157.25 L 263.4 155.9 L 265.4 153.9 L 268.1 152.55 L 280.15 147.85 L 281.5 145.8 L 282.85 144.8 L 284.5 144.1 L 285.85 144.1 L 287.55 144.45 M 228.15 192.1 L 229.5 191.4 L 231.2 191.1 L 233.2 199.45 L 232.5 201.45 L 231.85 208.5 L 231.85 210.85 L 230.5 215.55 L 229.5 217.55 L 228.5 217.2 L 227.5 217.2 L 225.5 217.55 L 221.8 219.25 L 221.45 222.65 L 220.45 225.65 L 218.8 229 L 216.75 232.05 L 211.4 237.7 L 208.75 240.05 L 205.7 242.1 L 202.7 240.05 L 202.35 239.05 L 201.35 237.05 L 201.35 229 L 201 226.35 L 200.35 224 L 200.35 221.65 L 201.7 217.55 L 202.7 215.9 L 205.7 212.85 L 219.45 203.5 L 220.8 202.15 L 226.8 193.45 L 228.15 192.1 M 234.85 244.75 L 237.55 247.75 L 241.55 255.15 L 241.55 256.8 L 240.9 260.15 L 240.2 261.5 L 238.2 264.2 L 232.85 268.2 L 229.85 269.9 L 224.8 273.9 L 222.8 273.9 L 221.45 274.25 L 214.75 277.25 L 213.1 277.6 L 211.4 277.6 L 209.75 279.6 L 208.05 280.6 L 206.4 281.3 L 202.7 281.3 L 201 281.6 L 199 282.6 L 197.35 284.3 L 196.65 284.65 L 193.65 283.6 L 192 282.3 L 191.3 281.6 L 190.95 280.6 L 208.75 264.2 L 210.4 261.5 L 212.1 260.85 L 213.1 259.85 L 216.1 255.15 L 217.1 254.15 L 218.8 253.15 L 220.8 253.15 L 228.15 244.75 L 231.2 242.75 L 234.85 244.75 M 198.35 349.35 L 204.7 339.65 L 224.15 316.2 L 228.5 309.8 L 229.5 309.8 L 230.85 309.15 L 231.5 308.5 L 232.5 306.8 L 233.2 305.15 L 234.2 303.8 L 234.55 303.45 L 235.2 303.1 L 235.85 303.1 L 236.55 303.45 L 238.9 305.15 L 240.55 306.8 L 237.9 319.85 L 233.5 328.25 L 231.2 330.25 L 228.85 335.3 L 220.1 349 L 216.45 352.05 L 201.35 368.85 L 194.65 374.55 L 190.95 373.55 L 190.65 371.85 L 190.95 370.2 L 192.3 367.2 L 193.65 362.1 L 193.65 360.4 L 198.35 349.35"></path></g><g transform="scale(0.457,0.457) translate(1021,63)"><path d="M 330.95 111.55 L 322.3 112.55 L 299.75 120.55 L 292.4 122.15 L 277.65 127 L 270.25 127.95 L 268.65 126.65 L 265.1 122.8 L 265.1 116.7 L 265.75 114.15 L 266.4 112.85 L 267.7 111.55 L 268.65 102.9 L 278 60.45 L 278.95 51.45 L 278.95 42.45 L 280.25 40.85 L 281.5 37.6 L 281.85 36 L 282.15 32.8 L 280.85 23.8 L 281.2 22.2 L 281.2 20.6 L 282.5 17.35 L 280.55 13.5 L 279.6 12.55 L 278.6 11.9 L 276.35 11.25 L 275.1 9.35 L 273.5 7.7 L 268 4.5 L 266.1 3.85 L 261.9 2.9 L 249.35 1.3 L 245.5 0 L 237.45 2.9 L 230.4 7.1 L 221.7 15.45 L 219.45 18.65 L 219.45 20.6 L 219.15 22.2 L 217.85 25.1 L 211.1 32.15 L 209.2 34.75 L 207.9 37.6 L 207.9 39.25 L 208.2 41.15 L 168.75 93.25 L 165.5 93.9 L 162.65 93.9 L 161.35 93.25 L 160.4 92.9 L 159.4 91.95 L 158.75 90.65 L 158.45 88.4 L 157.15 84.25 L 156.2 82.65 L 151.05 76.5 L 137.55 65.9 L 134.65 65.9 L 130.15 64.95 L 128.85 64.3 L 127.6 63.35 L 126.3 62.05 L 123.75 61.1 L 120.85 60.45 L 115.35 60.75 L 105.4 63.35 L 104.75 64.95 L 104.45 66.25 L 104.45 67.5 L 105.1 68.8 L 105.75 69.75 L 108.95 73 L 111.5 74.9 L 114.4 78.45 L 115.05 79.75 L 115.35 81.35 L 115.35 83.25 L 115.05 86.15 L 115.35 91.95 L 116.65 97.1 L 117.6 99.65 L 125.35 114.15 L 130.15 124.1 L 132.75 127 L 141.1 144.05 L 143.35 147.25 L 146.25 150.15 L 148.15 151.1 L 152.35 154.3 L 155.55 158.5 L 156.5 161.05 L 156.85 163.65 L 156.2 166.15 L 156.2 167.1 L 155.9 168.1 L 154.6 170 L 152.65 171.3 L 150.1 171.3 L 127.9 179.35 L 106.7 188.65 L 94.2 192.85 L 76.2 200.25 L 64 203.75 L 56.9 204.75 L 55.65 205.35 L 54.65 205.35 L 53.4 204.75 L 52.4 204.1 L 49.55 199.6 L 48.55 196.35 L 47.9 189.6 L 48.55 183.2 L 51.45 173.85 L 58.2 156.25 L 60.15 147.55 L 60.15 144.65 L 59.5 139.55 L 57.55 134.7 L 51.8 125.7 L 40.85 112.85 L 39.55 112.85 L 34.4 111.9 L 32.8 111.9 L 31.55 112.55 L 30.55 113.5 L 29.9 115.4 L 29.6 127.65 L 22.55 163.65 L 10 200.55 L 0 222.1 L 1.65 229.8 L 3.55 243.95 L 5.15 251.65 L 5.8 252.95 L 7.4 254.55 L 9.65 255.2 L 10.95 254.9 L 13.2 254.55 L 20.25 252 L 22.55 251.65 L 24.45 252.3 L 26.7 252 L 28.65 251 L 32.5 248.45 L 34.75 247.5 L 37 246.85 L 39.55 246.85 Q 46.65 243.65 53.7 240.4 L 63.7 234.65 L 66.9 232.05 L 70.1 232.05 L 73 231.4 L 75.55 230.45 L 82.95 225.3 L 93.25 219.5 L 116 211.5 L 127.25 206 L 132.75 202.15 L 139.5 200.55 L 172.9 187.35 L 183.5 185.1 L 189.65 184.45 L 212.05 176.75 L 217.2 176.75 L 222.05 178.35 L 224.6 179.95 L 226.85 182.2 L 233.3 197 L 236.5 202.15 L 239.4 204.75 L 243.25 206.65 L 245.5 207 L 246.8 207.6 L 248.1 208.6 L 249.7 215.65 L 250.35 216.95 L 246.15 223.05 L 212.7 256.5 L 208.2 262.9 L 189.3 273.55 L 183.5 277.7 L 171 290.9 L 130.8 324.65 L 118.9 337.5 L 115.35 342.25 L 112.8 344.2 L 109.9 348.7 L 109.25 350.95 L 109.25 352.85 L 109.6 355.1 L 110.85 359.6 L 116.35 371.2 L 117.6 375.7 L 117.6 378.25 L 124.35 381.8 L 128.25 383.1 L 132.1 383.75 L 136.25 383.75 L 144 382.1 L 147.5 380.5 L 158.45 380.85 L 186.1 376.35 L 196.3 376.65 L 203.4 378.25 L 205.95 380.85 L 207.25 382.45 L 208.2 384.35 L 209.5 388.25 L 210.45 396.6 L 209.5 409.15 L 208.55 411.05 L 205.95 414.6 L 204.35 416.2 L 201.15 418.75 L 182.25 427.75 L 178.7 427.75 L 175.5 428.4 L 163.6 433.9 L 160.7 434.85 L 157.5 435.15 L 142.05 441.3 L 135.95 442.55 L 134 442.55 L 130.15 441.9 L 128.25 441.3 L 126.3 440 L 124.7 440.65 L 122.75 440.65 L 119.55 440.3 L 116 439.35 L 113.1 437.75 L 100.25 432.6 L 96.4 433.25 L 93.25 434.5 L 81.7 443.85 L 78.8 445.45 L 77.2 446.1 L 75.55 446.4 L 73.65 447.7 L 72.05 449.3 L 69.45 452.85 L 62.7 468.9 L 58.85 474.4 L 56.9 476 L 55.95 479.85 L 55.65 483.4 L 55.95 486.95 L 57.9 493.7 L 62.05 503.3 L 66.9 505.25 L 72.05 506.55 L 74.95 506.85 L 80.4 506.55 L 82.95 505.9 L 86.2 504.3 L 94.85 498.5 L 120.5 475.35 L 127.9 469.9 L 129.5 468.9 L 131.1 468.3 L 132.75 467.95 L 135.95 467.95 L 139.5 468.6 L 150.4 471.8 L 153.65 472.45 L 189.65 495.3 L 209.5 512 L 211.1 511.7 L 219.45 512 L 221.4 511.7 L 226.2 508.8 L 231.35 503.3 L 234.9 496.55 L 237.45 488.85 L 238.1 484.7 L 236.5 481.45 L 234.9 474.7 L 234.25 467.3 L 235.2 448.65 L 235.55 433.55 L 234.25 426.5 L 236.85 422.65 L 240.05 419.4 L 247.75 414.25 L 265.1 407.85 L 271.2 404.95 L 277 404 L 279.9 404.3 L 285.7 405.6 L 294.3 409.45 L 308.15 416.85 L 311 417.8 L 313.3 421.35 L 314.55 424.55 L 314.9 431.3 L 312.95 437.4 L 311.35 440.65 L 298.15 458.3 L 293.65 467.3 L 296.25 472.45 L 299.75 472.8 L 306.2 472.15 L 322.3 468.6 L 323.9 469.9 L 324.85 471.15 L 325.15 472.15 L 325.15 474.05 L 324.85 474.7 L 333.55 479.2 L 335.45 479.85 L 337.4 480.2 L 339.65 479.85 L 339.65 477.3 L 339 475.35 L 337.7 473.75 L 332.9 469.9 L 331.6 468.3 L 330.95 466.05 L 333.85 463.45 L 337.4 461.2 L 340.9 459.6 L 356.05 455.4 L 359.25 453.8 L 362.8 449.95 L 365.05 445.45 L 366.3 440.3 L 366.65 434.5 L 364.4 411.7 L 353.15 401.4 L 350.55 399.8 L 344.45 397.9 L 338.05 397.55 L 307.5 392.1 L 301.4 392.1 L 280.85 395.3 L 236.85 399.15 L 234.9 398.2 L 233.3 396.9 L 232.35 395.6 L 231.05 392.75 L 231.05 387.6 L 232.35 376.65 L 231.7 373.1 L 232 371.5 L 233.95 368 L 237.8 364.45 L 246.8 358.35 L 250.95 354.5 L 265.45 344.85 L 276.05 339.35 L 286.35 334.95 L 289.5 333 L 290.75 332.05 L 292.05 330.75 L 293.65 328.2 L 295.9 321.75 L 297.5 312.4 L 292.7 306.95 L 290.75 305.35 L 282.8 301.8 L 266.4 297.65 L 262.2 294.4 L 259.65 293.45 L 257.4 292.15 L 242.95 287.65 L 238.75 285.75 L 234.9 282.85 L 233.3 281.25 L 231.7 279 L 231.05 277.7 L 230.7 276.4 L 230.7 274.8 L 231.05 273.55 L 232.95 269 L 238.75 263.25 L 252.25 254.9 L 285.35 241.4 L 288.85 239.45 L 291.4 239.15 L 296.55 237.5 L 313.6 228.2 L 321.3 225.3 L 323.9 224.65 L 329.65 224.35 L 331.3 223.35 L 332.25 221.75 L 332.9 219.85 L 333.85 211.5 L 334.5 209.55 L 333.2 205.7 L 330.65 203.1 L 321.3 195.4 L 319.4 194.45 L 317.45 193.8 L 315.85 193.5 L 313.6 193.5 L 302 195.4 L 300.1 195.4 L 298.5 195.1 L 296.55 194.45 L 294.95 193.5 L 289.8 194.1 L 284.75 193.8 L 279.9 192.85 L 275.4 191.25 L 271.2 189 L 267.35 186.1 L 264.15 182.55 L 261.6 178.7 L 261.9 176.1 L 262.55 173.85 L 263.5 171.95 L 264.8 170 L 268 167.45 Q 269.95 166.45 271.85 165.5 L 288.85 160.1 L 291.4 160.45 L 296.9 160.45 L 305.25 158.8 L 321.65 153.7 L 333.55 151.45 L 338.35 149.8 L 346.05 148.55 L 354.4 148.85 L 355.7 146.95 L 357.65 145.3 L 359.25 143.4 L 361.8 139.2 L 362.45 136.65 L 362.45 134.05 L 361.5 129.25 L 359.55 124.75 L 358.3 122.8 L 351.85 118.95 L 348.3 117.65 L 346.4 117.65 L 344.45 118 L 339.3 113.8 L 333.85 111.9 L 330.95 111.55 M 233.6 28 L 236.5 31.5 L 238.1 34.75 L 238.45 42.75 L 238.1 66.9 L 237.15 82.95 L 233.6 114.8 L 233.6 123.15 L 234.25 127.3 L 235.55 131.5 L 235.2 133.4 L 233.6 136.3 L 232.65 137.6 L 221.7 144.65 L 204.7 153.05 L 193.1 156.9 L 187.05 158.2 L 180.95 158.8 L 179 155.6 L 177.75 152.4 L 177.4 149.5 L 177.75 143.7 L 179.65 137.9 L 181.25 135.35 L 187.05 124.1 L 189.3 118 L 190.3 106.1 L 192.15 100.65 L 204.35 77.5 L 205.65 71.4 L 205.65 68.5 L 207.9 65.6 L 211.75 56.6 L 212.7 53.7 L 214.3 51.1 L 216.55 48.55 L 219.45 46 L 220.45 44.7 L 221.7 43.4 L 225.55 35.05 L 229.75 28.3 L 231.05 27.65 L 232.35 27.65 L 233.6 28 M 165.2 313.7 L 185.75 298.6 L 194.7 293.8 L 196 295.05 L 197.3 296.05 L 199.2 300.2 L 199.2 301.5 L 199.55 304.7 L 198.9 311.45 L 198.9 314.7 L 202.1 329.8 L 202.45 335.9 L 200.8 342.25 L 198.9 344.5 L 196.65 346.45 L 191.8 349.65 L 189.3 350.95 L 181.25 353.5 L 170 354.5 L 160.05 353.5 L 152 355.1 L 149.75 355.1 L 147.5 354.8 L 145.25 354.15 L 141.4 352.2 L 139.5 349.95 L 138.5 348.35 L 137.25 345.15 L 137.25 343.55 L 137.85 341.6 L 139.8 338.15 L 143.65 333.65 L 153.3 325.95 L 159.1 320.15 L 161 316.3 L 165.2 313.7 M 187.05 439.05 L 190.3 438.05 L 198.55 433.9 L 201.15 432.25 L 204.05 431.3 L 205.65 431 L 208.85 431 L 210.8 431.65 L 213.7 438.05 L 213.7 439.65 L 213.35 440.65 L 212.7 441.9 L 212.4 442.9 L 212.4 443.85 L 213.05 445.15 L 214.3 446.4 L 214.3 448.65 L 213.05 452.2 L 212.05 453.8 L 210.8 455.1 L 207.55 457.05 L 205.65 457.65 L 195.35 456.05 L 192.15 455.1 L 188.05 453.15 L 186.75 452.2 L 184.8 449.65 L 183.2 445.45 L 183.2 444.5 L 183.85 442.55 L 187.05 439.05 M 222.05 313.05 L 224.95 311.15 L 231.7 308.9 L 236.2 309.55 L 240.7 310.8 L 242.95 311.8 L 244.85 313.05 L 246.8 315 L 247.45 316.3 L 248.1 318.85 L 248.1 320.15 L 247.45 323.05 L 244.2 328.5 L 234.25 332.05 L 229.75 332.7 L 227.5 332.7 L 225.55 332.35 L 223.95 330.75 L 222.05 327.2 L 220.75 316.3 L 222.05 313.05"></path></g></g></svg>